<svg xmlns="http://www.w3.org/2000/svg" width="1024" height="512" viewBox="0 0 1024 512"><defs><linearGradient id="bg" x1="0" y1="0" x2="1" y2="1"><stop stop-color="#1b120a"/><stop offset="1" stop-color="#4b321b"/></linearGradient><filter id="g"><feGaussianBlur stdDeviation="5" result="b"/><feMerge><feMergeNode in="b"/><feMergeNode in="SourceGraphic"/></feMerge></filter></defs><rect width="1024" height="512" rx="32" fill="url(#bg)"/><rect x="88" y="110" width="848" height="300" rx="20" fill="#17120f" stroke="#ffad38" stroke-width="6"/><path d="M88 410l180-150h488l180 150z" fill="#33271b"/><g fill="#29241f" stroke="#ff9e22" stroke-width="5"><rect x="135" y="145" width="180" height="210" rx="14"/><rect x="355" y="145" width="180" height="210" rx="14"/><rect x="575" y="145" width="180" height="210" rx="14"/><rect x="795" y="145" width="95" height="210" rx="14"/></g><g stroke="#ffd184" stroke-width="12" stroke-linecap="round"><path d="M170 200h110M160 255h130M168 310h114"/><path d="M390 200h110M380 255h130M388 310h114"/><path d="M610 200h110M600 255h130M608 310h114"/></g><g fill="#ff9e22" filter="url(#g)"><circle cx="842" cy="205" r="24"/><circle cx="842" cy="273" r="24"/><circle cx="842" cy="341" r="24"/></g><rect x="312" y="354" width="400" height="48" rx="14" fill="#5d452c" stroke="#ffc068" stroke-width="4"/><path d="M365 378h294" stroke="#fff0cf" stroke-width="8"/><text x="512" y="72" text-anchor="middle" font-family="sans-serif" font-size="38" font-weight="800" fill="#fff2da">TACTICAL ARMORY</text></svg>