<svg xmlns="http://www.w3.org/2000/svg" width="1024" height="512" viewBox="0 0 1024 512"><defs><linearGradient id="bg" x1="0" y1="0" x2="1" y2="1"><stop stop-color="#101523"/><stop offset="1" stop-color="#4a321f"/></linearGradient><filter id="g"><feGaussianBlur stdDeviation="5" result="b"/><feMerge><feMergeNode in="b"/><feMergeNode in="SourceGraphic"/></feMerge></filter></defs><rect width="1024" height="512" rx="32" fill="url(#bg)"/><rect x="88" y="110" width="848" height="300" rx="22" fill="#17171d" stroke="#ffd447" stroke-width="6"/><path d="M88 410l170-150h508l170 150z" fill="#352d26"/><rect x="280" y="250" width="464" height="112" rx="20" fill="#72523b" stroke="#ffd786" stroke-width="6"/><rect x="420" y="184" width="184" height="88" rx="14" fill="#16384d" stroke="#6ee6ff" stroke-width="5"/><circle cx="512" cy="152" r="42" fill="#2b3547" stroke="#ffd447" stroke-width="7" filter="url(#g)"/><path d="M512 121l12 22 25 4-18 18 4 25-23-12-23 12 4-25-18-18 25-4z" fill="#ffd447"/><g fill="#26303d" stroke="#778da0" stroke-width="4"><rect x="140" y="168" width="120" height="182" rx="14"/><rect x="764" y="168" width="120" height="182" rx="14"/></g><g fill="#d8b64a"><rect x="162" y="196" width="76" height="18" rx="9"/><rect x="162" y="238" width="76" height="18" rx="9"/><rect x="162" y="280" width="76" height="18" rx="9"/><rect x="786" y="196" width="76" height="18" rx="9"/><rect x="786" y="238" width="76" height="18" rx="9"/><rect x="786" y="280" width="76" height="18" rx="9"/></g><text x="512" y="72" text-anchor="middle" font-family="sans-serif" font-size="38" font-weight="800" fill="#fff8d8">CHIEF'S OFFICE</text></svg>