<svg xmlns="http://www.w3.org/2000/svg" width="1024" height="512" viewBox="0 0 1024 512"><defs><linearGradient id="bg" x1="0" y1="0" x2="1" y2="1"><stop stop-color="#17120d"/><stop offset="1" stop-color="#4d3925"/></linearGradient></defs><rect width="1024" height="512" rx="32" fill="url(#bg)"/><rect x="88" y="110" width="848" height="300" rx="22" fill="#191713" stroke="#ffd18a" stroke-width="6"/><path d="M88 410l160-145h528l160 145z" fill="#3a3025"/><g fill="#617384" stroke="#c9e0ed" stroke-width="4"><rect x="130" y="155" width="300" height="78" rx="18"/><rect x="130" y="265" width="300" height="78" rx="18"/><rect x="594" y="155" width="300" height="78" rx="18"/><rect x="594" y="265" width="300" height="78" rx="18"/></g><g fill="#ffd18a"><rect x="148" y="170" width="92" height="48" rx="12"/><rect x="148" y="280" width="92" height="48" rx="12"/><rect x="612" y="170" width="92" height="48" rx="12"/><rect x="612" y="280" width="92" height="48" rx="12"/></g><rect x="438" y="205" width="148" height="132" rx="18" fill="#5e4630" stroke="#ffdc9c" stroke-width="5"/><circle cx="512" cy="244" r="24" fill="#7ef5d0"/><path d="M472 301h80" stroke="#fff0cf" stroke-width="10"/><text x="512" y="72" text-anchor="middle" font-family="sans-serif" font-size="38" font-weight="800" fill="#fff4df">CREW QUARTERS</text></svg>