<svg xmlns="http://www.w3.org/2000/svg" width="1024" height="512" viewBox="0 0 1024 512"><defs><linearGradient id="bg" x1="0" y1="0" x2="1" y2="1"><stop stop-color="#101722"/><stop offset="1" stop-color="#273746"/></linearGradient><filter id="g"><feGaussianBlur stdDeviation="5" result="b"/><feMerge><feMergeNode in="b"/><feMergeNode in="SourceGraphic"/></feMerge></filter></defs><rect width="1024" height="512" rx="32" fill="url(#bg)"/><rect x="88" y="112" width="848" height="298" rx="22" fill="#0d141d" stroke="#65a9ff" stroke-width="6"/><path d="M88 410l160-140h528l160 140z" fill="#202c36"/><g fill="#142330" stroke="#5a9dff" stroke-width="5"><rect x="130" y="150" width="230" height="210" rx="14"/><rect x="397" y="150" width="230" height="210" rx="14"/><rect x="664" y="150" width="230" height="210" rx="14"/></g><g stroke="#b8dcff" stroke-width="10"><path d="M165 160v190M205 160v190M245 160v190M285 160v190M325 160v190"/><path d="M432 160v190M472 160v190M512 160v190M552 160v190M592 160v190"/><path d="M699 160v190M739 160v190M779 160v190M819 160v190M859 160v190"/></g><g fill="#5a9dff" filter="url(#g)"><rect x="202" y="216" width="78" height="18" rx="9"/><rect x="469" y="216" width="78" height="18" rx="9"/><rect x="736" y="216" width="78" height="18" rx="9"/></g><circle cx="512" cy="388" r="24" fill="#ff7094"/><path d="M500 388h24M512 376v24" stroke="#fff" stroke-width="6"/><text x="512" y="72" text-anchor="middle" font-family="sans-serif" font-size="38" font-weight="800" fill="#eef7ff">SECURE HOLDING CELLS</text></svg>