<svg xmlns="http://www.w3.org/2000/svg" width="1024" height="512" viewBox="0 0 1024 512"><defs><linearGradient id="bg" x1="0" y1="0" x2="1" y2="1"><stop stop-color="#10091a"/><stop offset="1" stop-color="#321f48"/></linearGradient><filter id="g"><feGaussianBlur stdDeviation="6" result="b"/><feMerge><feMergeNode in="b"/><feMergeNode in="SourceGraphic"/></feMerge></filter></defs><rect width="1024" height="512" rx="32" fill="url(#bg)"/><rect x="88" y="110" width="848" height="300" rx="22" fill="#15111d" stroke="#c878ff" stroke-width="6"/><path d="M88 410l170-150h508l170 150z" fill="#271c34"/><circle cx="512" cy="286" r="102" fill="#1b2933" stroke="#c878ff" stroke-width="7"/><rect x="376" y="270" width="272" height="36" rx="18" fill="#263d49"/><g fill="#394552" stroke="#b75cff" stroke-width="5"><rect x="272" y="236" width="92" height="138" rx="18"/><rect x="660" y="236" width="92" height="138" rx="18"/></g><path d="M512 130v72" stroke="#f4fbff" stroke-width="20" stroke-linecap="round" filter="url(#g)"/><circle cx="512" cy="134" r="34" fill="#d9f7ff" opacity=".9"/><rect x="140" y="160" width="214" height="70" rx="14" fill="#21132c" stroke="#b75cff" stroke-width="4"/><path d="M170 194h154" stroke="#f0c8ff" stroke-width="8"/><rect x="670" y="160" width="214" height="70" rx="14" fill="#21132c" stroke="#b75cff" stroke-width="4"/><path d="M700 194h154" stroke="#f0c8ff" stroke-width="8"/><text x="512" y="72" text-anchor="middle" font-family="sans-serif" font-size="38" font-weight="800" fill="#f7eaff">INTERROGATION DIVISION</text></svg>