<svg xmlns="http://www.w3.org/2000/svg" width="1024" height="512" viewBox="0 0 1024 512"><defs><linearGradient id="bg" x1="0" y1="0" x2="1" y2="1"><stop stop-color="#09211f"/><stop offset="1" stop-color="#24574f"/></linearGradient><filter id="g"><feGaussianBlur stdDeviation="6" result="b"/><feMerge><feMergeNode in="b"/><feMergeNode in="SourceGraphic"/></feMerge></filter></defs><rect width="1024" height="512" rx="32" fill="url(#bg)"/><rect x="88" y="110" width="848" height="300" rx="22" fill="#0d1a1d" stroke="#66ffd0" stroke-width="6"/><path d="M88 410l160-145h528l160 145z" fill="#1f3e3d"/><g fill="#d9eef1" stroke="#7ef5d0" stroke-width="5"><rect x="130" y="190" width="220" height="112" rx="18"/><rect x="402" y="190" width="220" height="112" rx="18"/><rect x="674" y="190" width="220" height="112" rx="18"/></g><g fill="#52d6b3"><rect x="150" y="210" width="80" height="68" rx="12"/><rect x="422" y="210" width="80" height="68" rx="12"/><rect x="694" y="210" width="80" height="68" rx="12"/></g><path d="M512 122v64M480 154h64" stroke="#7ef5d0" stroke-width="22" stroke-linecap="round" filter="url(#g)"/><rect x="320" y="330" width="384" height="54" rx="15" fill="#17423e" stroke="#7ef5d0" stroke-width="4"/><path d="M350 357h60l24-19 28 36 34-30 28 13h150" fill="none" stroke="#b8fff0" stroke-width="7"/><text x="512" y="72" text-anchor="middle" font-family="sans-serif" font-size="38" font-weight="800" fill="#ebfffa">LUNAR MEDBAY</text></svg>