<svg xmlns="http://www.w3.org/2000/svg" width="1024" height="512" viewBox="0 0 1024 512"><defs><linearGradient id="bg" x1="0" y1="0" x2="1" y2="1"><stop stop-color="#071827"/><stop offset="1" stop-color="#123b5f"/></linearGradient><linearGradient id="floor" x1="0" y1="0" x2="0" y2="1"><stop stop-color="#1e4b67"/><stop offset="1" stop-color="#09131d"/></linearGradient><filter id="g"><feGaussianBlur stdDeviation="6" result="b"/><feMerge><feMergeNode in="b"/><feMergeNode in="SourceGraphic"/></feMerge></filter></defs><rect width="1024" height="512" rx="32" fill="url(#bg)"/><path d="M90 120h844v286H90z" fill="#08121c" stroke="#4fdcff" stroke-width="6"/><path d="M90 406l170-150h504l170 150z" fill="url(#floor)"/><g stroke="#58dfff" stroke-opacity=".25"><path d="M190 376h644M245 326h534M310 276h404"/><path d="M260 256l-70 150M384 256l-25 150M640 256l25 150M764 256l70 150"/></g><circle cx="512" cy="258" r="92" fill="#0b2738" stroke="#67e8ff" stroke-width="7"/><circle cx="512" cy="258" r="60" fill="#103a50" stroke="#b8f7ff" stroke-width="4"/><path d="M512 184v148M438 258h148" stroke="#7ef5d0" stroke-width="7" filter="url(#g)"/><g fill="#173f56" stroke="#4edaff" stroke-width="4"><rect x="150" y="158" width="180" height="98" rx="16"/><rect x="694" y="158" width="180" height="98" rx="16"/><rect x="250" y="326" width="180" height="64" rx="14"/><rect x="594" y="326" width="180" height="64" rx="14"/></g><g fill="#76eaff"><rect x="174" y="180" width="132" height="12" rx="6"/><rect x="718" y="180" width="132" height="12" rx="6"/><rect x="275" y="347" width="130" height="9" rx="5"/><rect x="619" y="347" width="130" height="9" rx="5"/></g><g fill="#7ef5d0"><circle cx="205" cy="220" r="10"/><circle cx="236" cy="220" r="10"/><circle cx="749" cy="220" r="10"/><circle cx="780" cy="220" r="10"/></g><text x="512" y="74" text-anchor="middle" font-family="sans-serif" font-size="38" font-weight="800" fill="#eafdff">OPERATIONS COMMAND</text></svg>