<svg xmlns="http://www.w3.org/2000/svg" width="1024" height="512" viewBox="0 0 1024 512"><defs><linearGradient id="bg" x1="0" y1="0" x2="1" y2="1"><stop stop-color="#09141b"/><stop offset="1" stop-color="#243946"/></linearGradient><filter id="g"><feGaussianBlur stdDeviation="6" result="b"/><feMerge><feMergeNode in="b"/><feMergeNode in="SourceGraphic"/></feMerge></filter></defs><rect width="1024" height="512" rx="32" fill="url(#bg)"/><rect x="88" y="110" width="848" height="300" rx="22" fill="#0d151b" stroke="#4fd8ff" stroke-width="6"/><path d="M88 410l160-145h528l160 145z" fill="#1c303a"/><path d="M160 360h704" stroke="#65dfff" stroke-width="16"/><g stroke="#b6f5ff" stroke-width="8"><path d="M240 150v210M320 150v210M400 150v210M624 150v210M704 150v210M784 150v210"/></g><rect x="430" y="180" width="164" height="180" rx="18" fill="#162b36" stroke="#4fd8ff" stroke-width="6"/><path d="M512 215v110M470 270h84" stroke="#7ef5d0" stroke-width="10" filter="url(#g)"/><g fill="#3fd0ff"><circle cx="278" cy="392" r="24"/><circle cx="512" cy="392" r="24"/><circle cx="746" cy="392" r="24"/></g><path d="M160 132h704" stroke="#ff7094" stroke-width="9"/><text x="512" y="72" text-anchor="middle" font-family="sans-serif" font-size="38" font-weight="800" fill="#eafcff">SECURED TRANSFER HALL</text></svg>