<svg xmlns="http://www.w3.org/2000/svg" width="256" height="256" viewBox="0 0 256 256"><defs><linearGradient id="bg" x1="0" y1="0" x2="1" y2="1"><stop offset="0" stop-color="#10071a"/><stop offset="1" stop-color="#2e1138"/></linearGradient></defs><rect width="256" height="256" rx="28" fill="url(#bg)"/><circle cx="128" cy="116" r="84" fill="#07050b" stroke="#ffbe68" stroke-width="8"/><path d="M66 211c11-50 36-74 62-74s52 24 62 74" fill="#75452e" stroke="#ffbe68" stroke-width="5"/><ellipse cx="128" cy="112" rx="50" ry="61" fill="#b96e52"/><path d="M77 100c7-50 34-70 71-57 20 7 34 25 34 57-23-22-45-27-65-20-13 4-25 11-40 20z" fill="#251217"/><circle cx="109" cy="119" r="5" fill="#8ff6ff"/><circle cx="147" cy="119" r="5" fill="#8ff6ff"/><path d="M106 151c15 5 30 5 44-1" fill="none" stroke="#633126" stroke-width="5"/><path d="M79 175l49 30 49-30-18-22-31 17-31-17z" fill="#302337" stroke="#ffbe68" stroke-width="5"/><path d="M177 85l24-19M181 103l31-2" stroke="#ff6f9f" stroke-width="5"/><text x="128" y="239" text-anchor="middle" font-family="sans-serif" font-size="18" fill="#fff2f8" font-weight="700">CINDER QUELL</text></svg>