<svg xmlns="http://www.w3.org/2000/svg" width="256" height="256" viewBox="0 0 256 256"><defs><linearGradient id="bg" x1="0" y1="0" x2="1" y2="1"><stop offset="0" stop-color="#10071a"/><stop offset="1" stop-color="#2e1138"/></linearGradient></defs><rect width="256" height="256" rx="28" fill="url(#bg)"/><circle cx="128" cy="116" r="84" fill="#07050b" stroke="#ff5f91" stroke-width="8"/><path d="M61 213c12-54 39-79 67-79s55 25 67 79" fill="#6d263e" stroke="#ff5f91" stroke-width="6"/><path d="M82 90c0-37 20-58 46-58s46 21 46 58v54c0 32-21 55-46 55s-46-23-46-55z" fill="#9a5b48"/><path d="M82 95c6-50 28-67 51-62 28 6 43 27 41 67-22-16-47-21-92-5z" fill="#201014"/><path d="M91 139c20 30 54 30 74 0-7 39-21 58-37 58s-30-19-37-58z" fill="#32181b"/><circle cx="108" cy="116" r="5" fill="#ffbf69"/><circle cx="148" cy="116" r="5" fill="#ffbf69"/><path d="M89 176l39 30 39-30" fill="#33192b" stroke="#ff6f9c" stroke-width="5"/><text x="128" y="239" text-anchor="middle" font-family="sans-serif" font-size="18" fill="#fff2f8" font-weight="700">GRIT MERCER</text></svg>