<svg xmlns="http://www.w3.org/2000/svg" width="256" height="256" viewBox="0 0 256 256"><defs><linearGradient id="bg" x1="0" y1="0" x2="1" y2="1"><stop offset="0" stop-color="#10071a"/><stop offset="1" stop-color="#2e1138"/></linearGradient><radialGradient id="face" cx="50%" cy="35%" r="70%"><stop offset="0" stop-color="#f3b99d"/><stop offset="1" stop-color="#7c3d4a"/></radialGradient></defs><rect width="256" height="256" rx="28" fill="url(#bg)"/><circle cx="128" cy="119" r="82" fill="#07050b" stroke="#ff5f9f" stroke-width="8"/><path d="M69 210c9-52 35-76 59-76s50 24 59 76" fill="#8b315d" stroke="#ff6fac" stroke-width="5"/><ellipse cx="128" cy="111" rx="51" ry="61" fill="url(#face)"/><path d="M78 107c4-63 38-76 77-58 25 12 31 39 22 70-9-42-31-49-54-42-14 4-30 19-45 30z" fill="#2b0e2b"/><path d="M91 110l25 5M165 110l-25 5" stroke="#421124" stroke-width="6"/><circle cx="109" cy="119" r="5" fill="#ffbf69"/><circle cx="147" cy="119" r="5" fill="#ffbf69"/><path d="M108 151c13 9 27 9 40 0" fill="none" stroke="#61283a" stroke-width="5"/><path d="M70 197l31-34 27 23 27-23 31 34" fill="#3b1637" stroke="#c96cff" stroke-width="5"/><text x="128" y="239" text-anchor="middle" font-family="sans-serif" font-size="18" fill="#fff2f8" font-weight="700">NYX RAZE</text></svg>