<svg xmlns="http://www.w3.org/2000/svg" width="512" height="320" viewBox="0 0 512 320"><defs><linearGradient id="bg" x1="0" y1="0" x2="1" y2="1"><stop offset="0" stop-color="#10071a"/><stop offset="1" stop-color="#2e1138"/></linearGradient><linearGradient id="metal" x1="0" y1="0" x2="0" y2="1"><stop offset="0" stop-color="#6d5678"/><stop offset="1" stop-color="#26182e"/></linearGradient><linearGradient id="neon" x1="0" y1="0" x2="1" y2="0"><stop offset="0" stop-color="#ff5f9f"/><stop offset=".5" stop-color="#c167ff"/><stop offset="1" stop-color="#ffbe68"/></linearGradient><filter id="glow" x="-50%" y="-50%" width="200%" height="200%"><feGaussianBlur stdDeviation="5" result="b"/><feMerge><feMergeNode in="b"/><feMergeNode in="SourceGraphic"/></feMerge></filter><pattern id="grid" width="32" height="32" patternUnits="userSpaceOnUse"><path d="M32 0H0V32" fill="none" stroke="#d56cff" stroke-opacity=".09"/></pattern></defs><rect width="512" height="320" rx="28" fill="url(#bg)"/><rect x="14" y="14" width="484" height="292" rx="20" fill="url(#grid)" stroke="#b25bd0" stroke-width="4"/><path d="M20 252H492V304H20Z" fill="#0a0610" opacity=".88"/><path d="M74 78H438V238H74Z" fill="#181021" stroke="#7f4f91" stroke-width="4"/><circle cx="256" cy="151" r="67" fill="#371143" stroke="#ff70b5" stroke-width="8" filter="url(#glow)"/><path d="M220 166L256 109L292 166L274 207H238Z" fill="#120819" stroke="#ffbf69" stroke-width="7"/><rect x="90" y="196" width="110" height="36" rx="8" fill="url(#metal)"/><rect x="312" y="196" width="110" height="36" rx="8" fill="url(#metal)"/><text x="256" y="286" text-anchor="middle" font-family="sans-serif" font-size="25" fill="#fff3fa" font-weight="700">BACKROOM COMMAND</text></svg>