<svg xmlns="http://www.w3.org/2000/svg" width="512" height="320" viewBox="0 0 512 320"><defs><linearGradient id="bg" x1="0" y1="0" x2="1" y2="1"><stop offset="0" stop-color="#10071a"/><stop offset="1" stop-color="#2e1138"/></linearGradient><linearGradient id="neon" x1="0" y1="0" x2="1" y2="0"><stop offset="0" stop-color="#ff5f9f"/><stop offset=".5" stop-color="#c167ff"/><stop offset="1" stop-color="#ffbe68"/></linearGradient><pattern id="grid" width="32" height="32" patternUnits="userSpaceOnUse"><path d="M32 0H0V32" fill="none" stroke="#d56cff" stroke-opacity=".09"/></pattern></defs><rect width="512" height="320" rx="28" fill="url(#bg)"/><rect x="14" y="14" width="484" height="292" rx="20" fill="url(#grid)" stroke="#b25bd0" stroke-width="4"/><path d="M20 252H492V304H20Z" fill="#0a0610" opacity=".88"/><path d="M54 77H458V240H54Z" fill="#18101f" stroke="#9f4d91" stroke-width="4"/><path d="M76 102H436L414 143H98Z" fill="url(#neon)" opacity=".75"/><g fill="#43214c" stroke="#d36dff" stroke-width="3"><rect x="83" y="151" width="94" height="76" rx="8"/><rect x="209" y="151" width="94" height="76" rx="8"/><rect x="335" y="151" width="94" height="76" rx="8"/></g><g fill="#ffbe68"><circle cx="130" cy="183" r="17"/><path d="M238 204l18-43 18 43z"/><rect x="371" y="168" width="22" height="43" rx="7"/></g><text x="256" y="286" text-anchor="middle" font-family="sans-serif" font-size="25" fill="#fff3fa" font-weight="700">BLACK MARKET</text></svg>