<svg xmlns="http://www.w3.org/2000/svg" width="512" height="320" viewBox="0 0 512 320"><defs><linearGradient id="bg" x1="0" y1="0" x2="1" y2="1"><stop offset="0" stop-color="#10071a"/><stop offset="1" stop-color="#2e1138"/></linearGradient><pattern id="grid" width="32" height="32" patternUnits="userSpaceOnUse"><path d="M32 0H0V32" fill="none" stroke="#d56cff" stroke-opacity=".09"/></pattern></defs><rect width="512" height="320" rx="28" fill="url(#bg)"/><rect x="14" y="14" width="484" height="292" rx="20" fill="url(#grid)" stroke="#b25bd0" stroke-width="4"/><path d="M20 252H492V304H20Z" fill="#0a0610" opacity=".88"/><rect x="58" y="62" width="396" height="178" rx="16" fill="#171018" stroke="#88526f" stroke-width="4"/><path d="M112 170L148 112H338L398 168V213H100V184Z" fill="#7c315c" stroke="#ff6ea7" stroke-width="6"/><path d="M178 118H318L347 164H145Z" fill="#271432"/><circle cx="158" cy="214" r="31" fill="#08070b" stroke="#ffbf69" stroke-width="7"/><circle cx="347" cy="214" r="31" fill="#08070b" stroke="#ffbf69" stroke-width="7"/><path d="M75 82L118 125M437 82L394 125" stroke="#c16cff" stroke-width="10"/><text x="256" y="286" text-anchor="middle" font-family="sans-serif" font-size="25" fill="#fff3fa" font-weight="700">CHOP SHOP</text></svg>