<svg xmlns="http://www.w3.org/2000/svg" width="512" height="320" viewBox="0 0 512 320"><defs><linearGradient id="bg" x1="0" y1="0" x2="1" y2="1"><stop offset="0" stop-color="#10071a"/><stop offset="1" stop-color="#2e1138"/></linearGradient><linearGradient id="metal" x1="0" y1="0" x2="0" y2="1"><stop offset="0" stop-color="#6d5678"/><stop offset="1" stop-color="#26182e"/></linearGradient><pattern id="grid" width="32" height="32" patternUnits="userSpaceOnUse"><path d="M32 0H0V32" fill="none" stroke="#d56cff" stroke-opacity=".09"/></pattern></defs><rect width="512" height="320" rx="28" fill="url(#bg)"/><rect x="14" y="14" width="484" height="292" rx="20" fill="url(#grid)" stroke="#b25bd0" stroke-width="4"/><path d="M20 252H492V304H20Z" fill="#0a0610" opacity=".88"/><rect x="55" y="61" width="402" height="181" rx="16" fill="#15101a" stroke="#80536e" stroke-width="4"/><g fill="url(#metal)" stroke="#d689b9" stroke-width="3"><rect x="82" y="87" width="155" height="55" rx="10"/><rect x="275" y="87" width="155" height="55" rx="10"/><rect x="82" y="166" width="155" height="55" rx="10"/><rect x="275" y="166" width="155" height="55" rx="10"/></g><g fill="#ff7fb2"><rect x="91" y="96" width="45" height="37" rx="8"/><rect x="284" y="96" width="45" height="37" rx="8"/><rect x="91" y="175" width="45" height="37" rx="8"/><rect x="284" y="175" width="45" height="37" rx="8"/></g><text x="256" y="286" text-anchor="middle" font-family="sans-serif" font-size="25" fill="#fff3fa" font-weight="700">SAFEHOUSE BUNKS</text></svg>