<svg xmlns="http://www.w3.org/2000/svg" width="512" height="320" viewBox="0 0 512 320"><defs><linearGradient id="bg" x1="0" y1="0" x2="1" y2="1"><stop offset="0" stop-color="#10071a"/><stop offset="1" stop-color="#2e1138"/></linearGradient><pattern id="grid" width="32" height="32" patternUnits="userSpaceOnUse"><path d="M32 0H0V32" fill="none" stroke="#d56cff" stroke-opacity=".09"/></pattern></defs><rect width="512" height="320" rx="28" fill="url(#bg)"/><rect x="14" y="14" width="484" height="292" rx="20" fill="url(#grid)" stroke="#b25bd0" stroke-width="4"/><path d="M20 252H492V304H20Z" fill="#0a0610" opacity=".88"/><rect x="56" y="60" width="400" height="183" rx="16" fill="#101521" stroke="#9656c4" stroke-width="4"/><g fill="#301b47" stroke="#c16dff" stroke-width="3"><rect x="82" y="82" width="348" height="36" rx="7"/><rect x="82" y="131" width="348" height="36" rx="7"/><rect x="82" y="180" width="348" height="36" rx="7"/></g><g stroke="#ff6ead" stroke-width="4"><path d="M105 100h62l18-13 23 26 28-20 22 7h145"/><path d="M105 149h44l19-14 26 29 31-21 31 6h147"/><path d="M105 198h73l17-15 29 31 32-23 28 7h119"/></g><text x="256" y="286" text-anchor="middle" font-family="sans-serif" font-size="25" fill="#fff3fa" font-weight="700">SIGNAL DEN</text></svg>