<svg xmlns="http://www.w3.org/2000/svg" width="512" height="320" viewBox="0 0 512 320"><defs><linearGradient id="bg" x1="0" y1="0" x2="1" y2="1"><stop offset="0" stop-color="#10071a"/><stop offset="1" stop-color="#2e1138"/></linearGradient><pattern id="grid" width="32" height="32" patternUnits="userSpaceOnUse"><path d="M32 0H0V32" fill="none" stroke="#d56cff" stroke-opacity=".09"/></pattern></defs><rect width="512" height="320" rx="28" fill="url(#bg)"/><rect x="14" y="14" width="484" height="292" rx="20" fill="url(#grid)" stroke="#b25bd0" stroke-width="4"/><path d="M20 252H492V304H20Z" fill="#0a0610" opacity=".88"/><path d="M64 235V157C64 79 150 50 256 50s192 29 192 107v78" fill="#181019" stroke="#81516f" stroke-width="10"/><path d="M112 235V165c0-48 57-72 144-72s144 24 144 72v70" fill="#09070d" stroke="#c16cff" stroke-width="7"/><path d="M143 225L187 129M212 225L235 105M300 225L277 105M369 225L325 129" stroke="#ff68a6" stroke-opacity=".5" stroke-width="5"/><rect x="191" y="163" width="130" height="61" rx="12" fill="#70304f" stroke="#ffbe68" stroke-width="5"/><text x="256" y="286" text-anchor="middle" font-family="sans-serif" font-size="25" fill="#fff3fa" font-weight="700">SMUGGLER TUNNEL</text></svg>