<svg xmlns="http://www.w3.org/2000/svg" width="1200" height="720" viewBox="0 0 1200 720"><defs><linearGradient id="bg" x1="0" y1="0" x2="1" y2="1"><stop stop-color="#06101c"/><stop offset="1" stop-color="#13243a"/></linearGradient><linearGradient id="steel" x1="0" y1="0" x2="0" y2="1"><stop stop-color="#e9f7ff"/><stop offset=".45" stop-color="#6f879c"/><stop offset="1" stop-color="#24384d"/></linearGradient><filter id="g"><feGaussianBlur stdDeviation="5" result="b"/><feMerge><feMergeNode in="b"/><feMergeNode in="SourceGraphic"/></feMerge></filter></defs><rect width="1200" height="720" rx="32" fill="url(#bg)"/><g opacity=".18" stroke="#75dfff"><path d="M0 90h1200M0 180h1200M0 270h1200M0 360h1200M0 450h1200M0 540h1200M0 630h1200"/><path d="M100 0v720M300 0v720M500 0v720M700 0v720M900 0v720M1100 0v720"/></g><text x="600" y="48" text-anchor="middle" fill="#f3fbff" font-family="sans-serif" font-size="30" font-weight="800">ALLIANCE RESEARCH NETWORK • LEVEL 1 → 100</text><g transform="translate(58 82)"><rect width="334" height="590" rx="24" fill="#101d2a" stroke="#ffc56b" stroke-width="4"/><text x="167" y="42" text-anchor="middle" fill="#ffe5b2" font-family="sans-serif" font-size="24" font-weight="800">CONSTRUCTION</text><path d="M167 103v392" stroke="#ffc56b" stroke-width="7" opacity=".55"/><g fill="#17283a" stroke="#ffc56b" stroke-width="4"><rect x="67" y="76" width="200" height="72" rx="16"/><rect x="67" y="174" width="200" height="72" rx="16"/><rect x="67" y="272" width="200" height="72" rx="16"/><rect x="67" y="370" width="200" height="72" rx="16"/><rect x="67" y="468" width="200" height="72" rx="16"/></g><g fill="#fff4d9" font-family="sans-serif" font-size="15" font-weight="700" text-anchor="middle"><text x="167" y="118">MODULAR FOUNDRY</text><text x="167" y="216">RAPID ASSEMBLY • GAP 3</text><text x="167" y="314">ORBITAL LOGISTICS • GAP 5</text><text x="167" y="412">SUPERSTRUCTURE • GAP 5</text><text x="167" y="510">BUILDER SWARMS • GAP 3</text></g><g transform="translate(133 548)"><path d="M0 32h68l-10 34H10z" fill="url(#steel)" stroke="#ffc56b" stroke-width="4"/><path d="M15 32V3h38v29M23 15h22" stroke="#fff1c9" stroke-width="5"/><circle cx="34" cy="50" r="8" fill="#ffc56b" filter="url(#g)"/></g></g><g transform="translate(433 82)"><rect width="334" height="590" rx="24" fill="#101d2a" stroke="#64eaff" stroke-width="4"/><text x="167" y="42" text-anchor="middle" fill="#c9f9ff" font-family="sans-serif" font-size="24" font-weight="800">TECHNOLOGY</text><path d="M167 103v392" stroke="#64eaff" stroke-width="7" opacity=".55"/><g fill="#17283a" stroke="#64eaff" stroke-width="4"><rect x="67" y="76" width="200" height="72" rx="16"/><rect x="67" y="174" width="200" height="72" rx="16"/><rect x="67" y="272" width="200" height="72" rx="16"/><rect x="67" y="370" width="200" height="72" rx="16"/><rect x="67" y="468" width="200" height="72" rx="16"/></g><g fill="#defcff" font-family="sans-serif" font-size="15" font-weight="700" text-anchor="middle"><text x="167" y="118">QUANTUM COMPUTING</text><text x="167" y="216">FUSION GRID • GAP 3</text><text x="167" y="314">DEEP SCAN • GAP 5</text><text x="167" y="412">MEDICAL NANITES • GAP 5</text><text x="167" y="510">RELAY ENCRYPTION • GAP 3</text></g><g transform="translate(133 548)"><circle cx="34" cy="34" r="31" fill="#153047" stroke="#64eaff" stroke-width="5"/><circle cx="34" cy="34" r="13" fill="#dffcff" filter="url(#g)"/><path d="M34 0v16M34 52v16M0 34h16M52 34h16" stroke="#64eaff" stroke-width="5"/></g></g><g transform="translate(808 82)"><rect width="334" height="590" rx="24" fill="#101d2a" stroke="#ff719b" stroke-width="4"/><text x="167" y="42" text-anchor="middle" fill="#ffd2df" font-family="sans-serif" font-size="24" font-weight="800">WEAPONS</text><path d="M167 103v392" stroke="#ff719b" stroke-width="7" opacity=".55"/><g fill="#17283a" stroke="#ff719b" stroke-width="4"><rect x="67" y="76" width="200" height="72" rx="16"/><rect x="67" y="174" width="200" height="72" rx="16"/><rect x="67" y="272" width="200" height="72" rx="16"/><rect x="67" y="370" width="200" height="72" rx="16"/><rect x="67" y="468" width="200" height="72" rx="16"/></g><g fill="#ffe1ea" font-family="sans-serif" font-size="15" font-weight="700" text-anchor="middle"><text x="167" y="118">PULSE HARMONIZATION</text><text x="167" y="216">RAIL CAPACITORS • GAP 3</text><text x="167" y="314">TARGETING AI • GAP 5</text><text x="167" y="412">INTERCEPTOR • GAP 3</text><text x="167" y="510">SIEGE NETWORK • GAP 5</text></g><g transform="translate(118 548)"><path d="M0 39h98" stroke="#effaff" stroke-width="13" stroke-linecap="round"/><path d="M48 39L78 6" stroke="#ff719b" stroke-width="16" stroke-linecap="round" filter="url(#g)"/><circle cx="83" cy="3" r="10" fill="#fff0f5"/></g></g></svg>