<svg xmlns="http://www.w3.org/2000/svg" width="1280" height="720" viewBox="0 0 1280 720"><defs><linearGradient id="moon" x1="0" y1="0" x2="0" y2="1"><stop offset="0" stop-color="#dce5ff"/><stop offset="1" stop-color="#6d77a6"/></linearGradient><filter id="glow" x="-50%" y="-50%" width="200%" height="200%"><feGaussianBlur stdDeviation="5" result="b"/><feMerge><feMergeNode in="b"/><feMergeNode in="SourceGraphic"/></feMerge></filter></defs><rect width="1280" height="720" fill="#03040b"/><circle cx="1015" cy="156" r="177" fill="url(#moon)"/><circle cx="950" cy="104" r="29" fill="#7f89aa" opacity=".5"/><circle cx="1076" cy="211" r="42" fill="#747e9c" opacity=".45"/><path d="M0 520L170 410 314 478 447 352 607 456 771 331 930 438 1096 365 1280 472V720H0Z" fill="#11111a"/><path d="M0 570L222 481 398 542 586 441 790 539 990 467 1280 560V720H0Z" fill="#1d1025"/><g fill="#25142e" stroke="#b45adc" stroke-width="5"><rect x="111" y="356" width="185" height="247"/><rect x="344" y="316" width="236" height="288"/><rect x="636" y="382" width="184" height="221"/></g><path d="M156 392h94M389 354h145M679 421h99" stroke="#ff6da9" stroke-width="12" filter="url(#glow)"/><text x="58" y="88" font-family="sans-serif" font-size="54" fill="#fff4fb" font-weight="900">THE NIGHT AFTER THE RAID</text><text x="61" y="137" font-family="sans-serif" font-size="25" fill="#d49ce8">Crater Market went dark. The Syndicate did not.</text></svg>