<svg xmlns="http://www.w3.org/2000/svg" width="1280" height="720" viewBox="0 0 1280 720"><defs><filter id="glow" x="-50%" y="-50%" width="200%" height="200%"><feGaussianBlur stdDeviation="5" result="b"/><feMerge><feMergeNode in="b"/><feMergeNode in="SourceGraphic"/></feMerge></filter></defs><rect width="1280" height="720" fill="#05020a"/><path d="M0 610L0 245 318 119 598 230 908 84 1280 207V720H0Z" fill="#130a19"/><path d="M0 610L0 344 294 243 541 338 862 211 1280 344V720H0Z" fill="#21102a"/><g stroke="#b65fff" stroke-width="6" fill="#26132f"><path d="M170 245h290v331H170z"/><path d="M733 190h331v386H733z"/></g><g stroke="#ff6ca8" stroke-width="12" filter="url(#glow)"><path d="M219 302h192M782 256h233"/><path d="M219 367h120M782 326h169"/></g><path d="M473 522C561 404 701 407 785 522" fill="none" stroke="#ffbd67" stroke-width="20"/><circle cx="629" cy="447" r="79" fill="#31123a" stroke="#ff6cab" stroke-width="8"/><text x="629" y="463" text-anchor="middle" font-family="sans-serif" font-size="42" fill="#ffbd67" font-weight="900">GHOST KEY</text><text x="60" y="88" font-family="sans-serif" font-size="54" fill="#fff4fb" font-weight="900">THE NETWORK REMEMBERS</text><text x="62" y="137" font-family="sans-serif" font-size="25" fill="#d49ce8">Every stolen relay becomes another door beneath the Moon.</text></svg>