<svg xmlns="http://www.w3.org/2000/svg" width="1280" height="720" viewBox="0 0 1280 720"><defs><filter id="glow" x="-50%" y="-50%" width="200%" height="200%"><feGaussianBlur stdDeviation="5" result="b"/><feMerge><feMergeNode in="b"/><feMergeNode in="SourceGraphic"/></feMerge></filter></defs><rect width="1280" height="720" fill="#03050b"/><circle cx="640" cy="382" r="256" fill="#12091d" stroke="#b65fff" stroke-width="10"/><circle cx="640" cy="382" r="198" fill="#06141b" stroke="#ff5f9d" stroke-width="6"/><g fill="#1f3946" stroke="#68e5ff" stroke-width="5"><path d="M245 401l132-79 119 61-32 152-139 32-95-94z"/><path d="M784 270l140 31 84 131-86 111-145-31-48-128z"/></g><path d="M430 382C510 303 770 303 850 382S770 461 640 461 350 461 430 382Z" fill="#2f113d" stroke="#ff6dac" stroke-width="9"/><path d="M508 382h264" stroke="#ffbd67" stroke-width="15" filter="url(#glow)"/><text x="640" y="103" text-anchor="middle" font-family="sans-serif" font-size="54" fill="#fff4fb" font-weight="900">TAKE BACK THE DARK</text><text x="640" y="155" text-anchor="middle" font-family="sans-serif" font-size="25" fill="#d49ce8">The law sees a precinct. We see a vault with windows.</text></svg>